:SAMPLES-PER-SECOND 30
:FULLY-SPECIFIED
:DEGREES
242
root  76.1656 40.4008 2.7642 -162.091 -85.0041 157.146
RightUpLeg  9.89872 -10.8342 -9.54909
RightLeg  7.18061 -8.52129 3.00815
RightFoot  -5.01089 -0.115678 1.47281
RightToes  5.82063e-011 0 -3.6325e-017
Spine  0.499833 1.19547 0.134546
Spine1  10.4397 1.32079 0.271297
HEad  16.8382 1.20718 -1.92383
LeftShoulder1  7.19898 -12.7686 -38.0848
LeftArm  -10.0363 24.6877 -14.8887
LeftForeArm  37.407 -26.4121 -3.69104
LeftHand  -0.244104 0.0205437 5.32207
RightShoulder  3.87517 7.1533 30.404
RightArm  -11.4099 -12.4206 19.6251
RightForeArm  8.68955 17.168 4.45174
RightHand  -2.64642 7.182 -24.3844
LeftUpLeg  10.0618 4.83284 -0.203477
LeftLeg  2.77682 18.5316 -4.21824
LeftFoot  -3.8875 0.0443835 -0.294499
LeftToes  1.45487e-011 -6.19069e-011 1.65092e-011
243
root  76.0565 40.4019 2.67007 -157.768 -85.4677 152.7
RightUpLeg  10.4466 -10.8361 -9.65292
RightLeg  6.95539 -9.03048 3.10063
RightFoot  -5.15832 -0.111001 1.39403
RightToes  5.82063e-011 0 -3.6325e-017
Spine  0.0343175 1.2542 0.551251
Spine1  9.58684 1.46573 -0.0335208
HEad  17.6911 0.990929 -1.77078
LeftShoulder1  6.61456 -12.4017 -35.513
LeftArm  -9.2961 24.3683 -11.2665
LeftForeArm  35.1229 -24.2903 -3.37249
LeftHand  -0.244104 0.0205437 5.32207
RightShoulder  3.4346 6.5359 28.2043
RightArm  -14.5629 -13.2381 15.8206
RightForeArm  4.86378 14.4449 4.54629
RightHand  -2.26005 6.12946 -22.8062
LeftUpLeg  10.4065 4.76191 -0.214494
LeftLeg  2.60297 18.1455 -4.21919
LeftFoot  -3.79786 0.0485253 -0.34749
LeftToes  1.45487e-011 -6.19069e-011 1.65092e-011
244
root  75.9752 40.4017 2.57754 -152.345 -85.9145 147.249
RightUpLeg  10.8666 -10.8208 -9.70002
RightLeg  6.6913 -9.59466 3.19764
RightFoot  -5.27498 -0.108221 1.3487
RightToes  5.82063e-011 0 -3.6325e-017
Spine  -0.359585 1.21538 0.792275
Spine1  8.72432 1.47457 -0.183622
HEad  18.6493 0.859693 -1.65367
LeftShoulder1  6.02674 -11.9822 -32.8783
LeftArm  -8.88341 24.1053 -7.85795
LeftForeArm  32.305 -22.2877 -3.1982
LeftHand  -0.244104 0.0205437 5.32207
RightShoulder  2.99165 5.89038 25.7561
RightArm  -17.3446 -13.8246 12.616
RightForeArm  1.33483 12.146 4.26703
RightHand  -2.12716 5.52478 -22.6385
LeftUpLeg  10.5693 4.73254 -0.210568
LeftLeg  2.4985 17.7384 -4.2301
LeftFoot  -3.7564 0.0462094 -0.29617
LeftToes  1.45487e-011 -6.19069e-011 1.65092e-011
245
root  75.922 40.4008 2.47971 -145.823 -86.2769 140.825
RightUpLeg  11.0366 -10.8148 -9.6876
RightLeg  6.53335 -10.1221 3.24177
RightFoot  -5.36975 -0.106926 1.32819
RightToes  5.82063e-011 0 -3.6325e-017
Spine  -0.737296 1.12728 0.829326
Spine1  7.90283 1.42231 -0.274286
HEad  19.6366 0.533595 -1.58497
LeftShoulder1  5.42749 -11.524 -30.0599
LeftArm  -8.86624 23.9677 -4.91385
LeftForeArm  29.4485 -20.607 -3.20383
LeftHand  -0.244104 0.0205437 5.32207
RightShoulder  2.56089 5.1249 23.4832
RightArm  -19.1717 -14.0567 9.75383
RightForeArm  -0.718088 10.7303 3.80448
RightHand  -2.12666 5.53819 -22.6061
LeftUpLeg  10.577 4.64139 -0.249658
LeftLeg  2.33185 17.401 -4.2295
LeftFoot  -3.65887 0.0431461 -0.230525
LeftToes  1.45487e-011 -6.19069e-011 1.65092e-011
246
root  75.8822 40.4001 2.38078 -139.273 -86.5007 134.467
RightUpLeg  11.0194 -10.8168 -9.64292
RightLeg  6.44371 -10.5795 3.25758
RightFoot  -5.50196 -0.10327 1.27062
RightToes  5.82063e-011 0 -3.6325e-017
Spine  -1.20094 1.03672 0.727851
Spine1  7.24021 1.36237 -0.369493
HEad  20.5405 0.160743 -1.4211
LeftShoulder1  4.77556 -10.9415 -26.9274
LeftArm  -9.21714 23.9391 -2.78223
LeftForeArm  27.3925 -19.3116 -3.20803
LeftHand  -0.244104 0.0205437 5.32207
RightShoulder  2.14693 4.25022 21.3698
RightArm  -20.1897 -14.0333 7.2285
RightForeArm  -2.06936 10.2845 3.51192
RightHand  -2.12331 5.64696 -22.3583
LeftUpLeg  10.534 4.47785 -0.339453
LeftLeg  2.02223 17.1998 -4.22454
LeftFoot  -3.51643 0.043545 -0.217228
LeftToes  1.45487e-011 -6.19069e-011 1.65092e-011
247
root  75.8525 40.3985 2.28808 -135.037 -86.602 130.426
RightUpLeg  10.9726 -10.7687 -9.52258
RightLeg  6.29057 -10.9567 3.2768
RightFoot  -5.63938 -0.0972678 1.174
RightToes  5.82063e-011 0 -3.6325e-017
Spine  -1.50285 1.00773 0.514028
Spine1  6.49996 1.30652 -0.271521
HEad  21.3876 0.0115627 -1.13967
LeftShoulder1  4.11471 -10.1943 -23.7813
LeftArm  -9.93023 23.9818 -1.38407
LeftForeArm  26.5704 -18.3796 -3.12871
LeftHand  -0.244104 0.0205437 5.32207
RightShoulder  1.73337 3.27405 19.0874
RightArm  -20.6082 -13.916 5.21806
RightForeArm  -3.6126 10.6102 3.50181
RightHand  -2.09273 5.47322 -22.3863
LeftUpLeg  10.505 4.34338 -0.396475
LeftLeg  1.68063 17.1436 -4.20008
LeftFoot  -3.43692 0.0468585 -0.249017
LeftToes  1.45487e-011 -6.19069e-011 1.65092e-011
248
root  75.8433 40.3915 2.20235 -134.122 -86.6418 129.648
RightUpLeg  10.9624 -10.6327 -9.28536
RightLeg  6.06326 -11.228 3.283
RightFoot  -5.75505 -0.0898368 1.05037
RightToes  5.82063e-011 0 -3.6325e-017
Spine  -1.37541 1.06146 0.133457
Spine1  5.4701 1.23151 0.248167
HEad  22.2334 -0.0460477 -0.977777
LeftShoulder1  3.52564 -9.31663 -21.0935
LeftArm  -10.6797 24.015 -0.324921
LeftForeArm  26.5036 -17.8173 -2.99936
LeftHand  -0.244104 0.0205437 5.32207
RightShoulder  1.31359 2.1601 16.5103
RightArm  -20.6189 -13.6249 3.78786
RightForeArm  -4.64062 11.3454 3.65485
RightHand  -2.1292 5.51588 -22.675
LeftUpLeg  10.5171 4.287 -0.365959
LeftLeg  1.38423 17.1994 -4.15535
LeftFoot  -3.47269 0.0472758 -0.236839
LeftToes  1.45487e-011 -6.19069e-011 1.65092e-011
249
root  75.8564 40.3771 2.11967 -134.382 -86.6708 130.017
RightUpLeg  10.9189 -10.4638 -8.99662
RightLeg  5.88872 -11.4297 3.25646
RightFoot  -5.92969 -0.0815404 0.906244
RightToes  5.82063e-011 0 -3.6325e-017
Spine  -1.15512 1.07806 -0.205736
Spine1  4.57218 1.14001 0.707154
HEad  23.0115 -0.108751 -0.830911
LeftShoulder1  3.01118 -8.3994 -18.7319
LeftArm  -11.2272 23.9755 0.538906
LeftForeArm  26.1166 -17.4706 -2.90381
LeftHand  -0.244104 0.0205437 5.32207
RightShoulder  0.974089 1.10392 14.278
RightArm  -20.5165 -12.9587 2.59761
RightForeArm  -4.53059 12.0604 3.79933
RightHand  -2.31349 6.337 -22.9151
LeftUpLeg  10.5584 4.2609 -0.287108
LeftLeg  1.05808 17.2365 -4.14324
LeftFoot  -3.579 0.0419676 -0.137972
LeftToes  1.45487e-011 -6.19069e-011 1.65092e-011
250
root  75.882 40.3565 2.03969 -133.18 -86.742 128.959
RightUpLeg  10.7957 -10.3456 -8.74299
RightLeg  5.81493 -11.6529 3.23068
RightFoot  -6.20496 -0.0762463 0.799442
RightToes  5.82063e-011 0 -3.6325e-017
Spine  -1.21834 0.997354 -0.426635
Spine1  4.13905 1.03309 0.854642
HEad  23.5957 -0.212905 -0.498081
LeftShoulder1  2.59307 -7.64279 -16.5312
LeftArm  -11.5705 23.8248 1.16799
LeftForeArm  24.6927 -16.9434 -2.86463
LeftHand  -0.244104 0.0205437 5.32207
RightShoulder  0.747379 0.275807 12.7713
RightArm  -20.5141 -12.0495 1.42819
RightForeArm  -4.23848 12.5022 3.88891
RightHand  -2.57241 7.47967 -23.2134
LeftUpLeg  10.5636 4.2117 -0.207052
LeftLeg  0.671353 17.1258 -4.18677
LeftFoot  -3.69707 0.0351341 -0.0189427
LeftToes  1.45487e-011 -6.19069e-011 1.65092e-011
251
root  75.9181 40.3359 1.96694 -130.686 -86.8926 126.621
RightUpLeg  10.6768 -10.2807 -8.50599
RightLeg  5.73061 -11.9231 3.26152
RightFoot  -6.46827 -0.0750555 0.744844
RightToes  5.82063e-011 0 -3.6325e-017
Spine  -1.47775 0.865219 -0.514625
Spine1  4.05486 0.918994 0.837288
HEad  24.9009 -0.338279 0.301522
LeftShoulder1  2.29309 -7.15869 -14.6146
LeftArm  -11.7802 23.5298 1.47264
LeftForeArm  23.0077 -15.9356 -2.82217
LeftHand  -0.244104 0.0205437 5.32207
RightShoulder  0.612844 -0.257363 11.768
RightArm  -20.5184 -11.2078 0.367991
RightForeArm  -5.05271 12.5528 3.98594
RightHand  -2.71182 7.89961 -23.6866
LeftUpLeg  10.4842 4.14906 -0.107098
LeftLeg  0.360707 16.9225 -4.20473
LeftFoot  -3.82338 0.0293781 0.0785528
LeftToes  1.45487e-011 -6.19069e-011 1.65092e-011
252
root  75.9767 40.3174 1.90172 -128.672 -87.0891 124.692
RightUpLeg  10.6353 -10.207 -8.22749
RightLeg  5.56967 -12.2105 3.33487
RightFoot  -6.63914 -0.0704702 0.620808
RightToes  5.82063e-011 0 -3.6325e-017
Spine  -1.49974 0.792936 -0.548663
Spine1  3.91651 0.84211 0.910216
HEad  28.3416 -0.517936 1.76165
LeftShoulder1  2.10942 -6.93289 -13.192
LeftArm  -11.975 23.0802 1.45561
LeftForeArm  21.3977 -14.552 -2.76749
LeftHand  -0.244104 0.0205437 5.32207
RightShoulder  0.530275 -0.582987 10.9615
RightArm  -20.2198 -10.554 -0.484466
RightForeArm  -6.64106 12.1731 4.12889
RightHand  -2.63876 7.34066 -24.0376
LeftUpLeg  10.365 4.10893 0.0316904
LeftLeg  0.220915 16.7722 -4.1333
LeftFoot  -3.98965 0.0224514 0.188205
LeftToes  1.45487e-011 -6.19069e-011 1.65092e-011
253
root  76.0635 40.2949 1.83481 -127.372 -87.2276 123.396
RightUpLeg  10.5977 -10.0984 -7.94105
RightLeg  5.42152 -12.5212 3.36191
RightFoot  -6.83135 -0.0606141 0.361083
RightToes  5.82063e-011 0 -3.6325e-017
Spine  -1.1857 0.79476 -0.747168
Spine1  3.65099 0.784365 1.20275
HEad  28.8915 -1.11782 1.7505
LeftShoulder1  2.01743 -6.83259 -12.4262
LeftArm  -12.1178 22.5007 1.31838
LeftForeArm  20.0195 -13.1897 -2.73892
LeftHand  -0.244104 0.0205437 5.32207
RightShoulder  0.482871 -0.75527 10.3086
RightArm  -19.6203 -9.93773 -1.10528
RightForeArm  -7.39287 11.4071 4.25182
RightHand  -2.49961 6.67117 -24.0259
LeftUpLeg  10.2855 4.10326 0.160907
LeftLeg  0.124039 16.6578 -4.05637
LeftFoot  -4.18348 0.0161268 0.281212
LeftToes  1.45487e-011 -6.19069e-011 1.65092e-011
